<svg width="300" height="400" viewBox="0 0 300 400" xmlns="http://www.w3.org/2000/svg">
  <!-- Corpo da Pokédex -->
  <rect x="10" y="10" width="280" height="380" rx="30" ry="30" fill="#e60012" stroke="#880000" stroke-width="4"/>

  <!-- Tela maior, um pouco mais acima -->
  <rect x="50" y="80" width="200" height="180" rx="15" ry="15" fill="#0b0b0b" stroke="#333" stroke-width="3"/>

  <!-- Tela interna azul maior -->
  <rect x="60" y="90" width="180" height="160" rx="10" ry="10" fill="#1e90ff" />

  <!-- Luzes no canto superior esquerdo com espaçamento igual, deslocadas para direita -->
  <circle cx="47" cy="35" r="14" fill="#add8e6" stroke="#7fb4d1" stroke-width="2"/> <!-- azul claro maior -->
  <circle cx="78" cy="35" r="10" fill="#ff0" stroke="#cc0" stroke-width="2"/>          <!-- amarelo -->
  <circle cx="109" cy="35" r="10" fill="#0f0" stroke="#0c0" stroke-width="2"/>          <!-- verde -->

  <!-- Joystick maior em forma de cruz, cor escurecida -->
  <g transform="translate(30,305) scale(1.5)">
    <path fill="#222" stroke="#111" stroke-width="1" d="M 15 0 
             H 25 
             V 15 
             H 40 
             V 25 
             H 25 
             V 40 
             H 15 
             V 25 
             H 0 
             V 15 
             H 15 
             Z" />
    <!-- Setinhas internas, cinza claro, reduzidas -->
    <polygon fill="#bbb" points="20,4 22.5,10 17.5,10" />   <!-- cima -->
    <polygon fill="#bbb" points="20,36 22.5,30 17.5,30" />  <!-- baixo -->
    <polygon fill="#bbb" points="4,20 10,17.5 10,22.5" />   <!-- esquerda -->
    <polygon fill="#bbb" points="36,20 30,17.5 30,22.5" />  <!-- direita -->
  </g>

  <!-- Botão circular escuro, mais para baixo -->
  <circle cx="230" cy="310" r="18" fill="#222" stroke="#111" stroke-width="3" />
</svg>
